<?xml version="1.0" encoding="iso-8859-1"?>
<!-- Uploaded to: SVG Repo, www.svgrepo.com, Generator: SVG Repo Mixer Tools -->
<!DOCTYPE svg PUBLIC "-//W3C//DTD SVG 1.1//EN" "http://www.w3.org/Graphics/SVG/1.1/DTD/svg11.dtd">
<svg fill="#000000" version="1.1" id="Capa_1" xmlns="http://www.w3.org/2000/svg" xmlns:xlink="http://www.w3.org/1999/xlink" 
	 width="800px" height="800px" viewBox="0 0 214.882 214.882"
	 xml:space="preserve">
<g>
	<path d="M201.123,84.638c-9.35-10.465-22.476-16.253-36.951-16.308c-0.068,0-0.132,0-0.205,0c-29.294,0-46.201,17.885-60.987,37.8
		c-6.049,7.433-13.205,9.405-20.229,5.466c-5.59-3.153-7.583-10.275-4.446-15.876c2.405-4.266,7.847-5.785,12.119-3.38
		c1.55,0.865,2.668,2.299,3.148,4.019c0.48,1.716,0.259,3.509-0.622,5.062c-0.644,1.157-1.688,1.972-2.953,2.338
		c-0.021,0-0.042,0-0.063,0c0.016-0.274,0.084-0.545,0.042-0.809c-0.316-2.149-2.336-3.66-4.488-3.338
		c-2.183,0.334-3.665,2.338-3.349,4.493c0.147,0.989,0.665,1.793,1.355,2.389c0.01,0.016,0.026,0.026,0.037,0.042
		c0.095,0.076,0.164,0.155,0.264,0.221c0.111,0.113,0.216,0.232,0.359,0.319c2.146,1.224,4.635,1.519,7.008,0.847
		c2.378-0.665,4.356-2.218,5.558-4.372c1.45-2.555,1.809-5.521,1.018-8.366c-0.791-2.824-2.637-5.179-5.189-6.626
		c-6.354-3.575-14.428-1.318-17.998,5.044c-4.303,7.678-1.572,17.439,6.091,21.742c3.09,1.74,6.233,2.595,9.329,2.595
		c1.708,0,3.396-0.295,5.062-0.802c-3.554,4.994-6.956,9.751-10.536,14.254c-6.977,8.786-13.089,16.29-19.122,22.054
		c-0.591-0.058-1.197,0.111-1.661,0.564c-12.498,11.707-25.529,13.258-36.698,4.382c-8.775-6.992-10.236-19.817-3.259-28.592
		c5.469-6.851,15.451-7.989,22.28-2.547c2.558,2.035,4.166,4.946,4.535,8.21c0.369,3.254-0.548,6.439-2.589,9.007
		c-1.645,2.073-4.002,3.244-6.455,3.476c0.58-0.976,1.007-2.046,1.007-3.265c0-3.564-2.879-6.449-6.444-6.449
		c-3.57,0-6.46,2.885-6.46,6.449c0,2.97,2.036,5.358,4.762,6.107c5.685,2.947,12.846,1.561,16.98-3.629
		c2.752-3.475,3.992-7.777,3.496-12.182c-0.496-4.393-2.679-8.342-6.138-11.1c-8.69-6.914-21.405-5.495-28.35,3.222
		c-8.464,10.642-6.692,26.204,3.945,34.667c1.999,1.593,4.076,2.801,6.191,3.808c-7.968-1.65-14.961-6.186-19.812-12.956
		c-5.353-7.494-7.488-16.98-5.859-26.051c2.595-14.477,16.511-24.129,30.977-21.526c0.396,0.073,0.775,0,1.123-0.119
		c0.2,0.069,0.385,0.161,0.601,0.172c0.021,0,0.512,0.01,0.533,0.01c3.512,0,21.421-0.63,29.188-13.186
		c2.479-4.013,2.204-9.26,1.967-13.872c-0.206-4.008-0.406-7.781,1.171-9.5c1.255-1.355,3.206-1.118,5.294-0.68
		c0.965,0.211,1.877,0.412,2.79,0.412c2.025,0,3.09-1.021,3.628-1.912c3.159-5.146-1.303-13.479-10.151-18.966
		c-8.506-5.268-18.394-5.611-21.489-0.599c-1.566,2.55,0.221,4.775,1.524,6.405c1.545,1.917,2.458,3.196,1.756,5.054
		c-0.828,2.165-4.298,3.689-7.968,5.287c-4.25,1.851-9.07,3.941-11.549,7.965c-6.344,10.249-2.584,22.937-0.122,28.98
		C18.187,98.917,3.474,109.845,0.6,125.839c-1.83,10.199,0.57,20.889,6.597,29.32c5.87,8.211,14.518,13.563,24.327,15.062
		c23.52,3.617,36.75-11.37,56.368-36.107c0.1-0.121,0.2-0.274,0.3-0.396c0.011-0.011,0.026-0.026,0.037-0.037
		c6.708-7.446,14.212-9.007,21.115-4.414c5.342,3.555,6.808,10.79,3.274,16.11c-2.7,4.061-8.231,5.168-12.324,2.458
		c-1.481-0.997-2.483-2.489-2.842-4.24c-0.348-1.745-0.005-3.518,0.976-4.999c0.807-1.218,2.073-1.903,3.412-2.094
		c-0.011,0.19-0.084,0.369-0.063,0.564c0.179,2.183,2.115,3.786,4.288,3.612c2.183-0.18,3.781-2.094,3.602-4.271
		c-0.169-1.861-1.619-3.243-3.391-3.491c-4.029-1.804-8.896-0.506-11.438,3.28c-1.619,2.431-2.199,5.353-1.608,8.242
		c0.575,2.874,2.247,5.353,4.683,6.982c2.251,1.481,4.799,2.199,7.314,2.199c4.277-0.011,8.475-2.067,11.001-5.875
		c4.852-7.309,2.842-17.218-4.478-22.106c-5.1-3.386-10.51-4.103-15.757-2.378c1.097-1.529,2.204-3.054,3.274-4.572
		c2.326-3.259,4.667-6.528,7.056-9.756c0.201-0.242,0.406-0.453,0.597-0.707c0.068-0.095,0.084-0.179,0.132-0.274
		c14.021-18.729,30.068-35.279,56.947-35.279c0.063,0,0.127,0,0.19,0c13.23,0.032,25.207,5.302,33.739,14.85
		c9.534,10.671,14.021,25.734,12.313,41.312c-1.245,11.453-6.877,21.747-15.868,28.961c-8.11,6.519-18.072,9.793-28.371,9.461
		c-6.876-0.986-12.377-4.061-15.873-8.996c-4.002-5.653-5.315-13.569-3.597-21.68c1.118-5.3,4.245-9.861,8.807-12.825
		c4.552-2.964,9.999-3.96,15.31-2.842c4.145,0.886,7.693,3.306,9.998,6.866c2.31,3.533,3.09,7.772,2.204,11.918
		c-0.664,3.185-2.525,5.916-5.252,7.699c-2.748,1.793-6.027,2.404-9.234,1.708c-2.373-0.495-4.403-1.877-5.769-3.86
		c3.512-0.1,6.322-2.995,6.275-6.518c-0.048-3.564-2.979-6.418-6.55-6.359c-3.57,0.042-6.418,2.974-6.37,6.539
		c0.011,1.06,0.348,2.024,0.822,2.91c0.27,1.957,0.918,3.871,2.036,5.585c1.993,3.054,5.067,5.168,8.658,5.933
		c4.33,0.907,8.775,0.105,12.482-2.336c3.702-2.41,6.229-6.117,7.125-10.421c1.123-5.278,0.121-10.657-2.816-15.171
		c-2.932-4.515-7.457-7.626-12.72-8.744c-6.449-1.371-13.046-0.132-18.567,3.465c-5.521,3.586-9.318,9.118-10.679,15.557
		c-1.978,9.287-0.411,18.415,4.292,25.064c0.138,0.19,0.333,0.332,0.47,0.538c-2.711-1.877-5.168-4.145-7.288-6.781
		c-5.7-7.077-8.295-15.989-7.309-25.038c1.619-14.719,14.897-25.334,29.584-23.775c1.197,0.174,2.252-0.723,2.378-1.909
		c0.132-1.184-0.723-2.252-1.914-2.378c-17.075-1.882-32.479,10.512-34.346,27.598c-2.3,21.047,12.957,40.047,34.008,42.346
		c1.065,0.111,2.12,0.121,3.181,0.169c0.158,0.021,0.295,0.085,0.458,0.105c0.101,0.021,0.185,0.021,0.28,0.021
		c0.073,0,0.115-0.063,0.194-0.074c0.369,0.011,0.76,0.063,1.129,0.063c10.763,0,21.131-3.628,29.642-10.463
		c9.883-7.957,16.09-19.269,17.445-31.861C216.347,112.503,211.474,96.221,201.123,84.638z M37.905,73.741
		c1.767-2.851,5.743-4.588,9.587-6.257c4.53-1.983,8.812-3.839,10.289-7.729c1.614-4.245-0.817-7.271-2.426-9.271
		c-0.443-0.557-1.107-1.39-1.224-1.421c0.902-1.464,3.159-1.685,4.419-1.685c3.296,0,7.351,1.339,11.127,3.678
		c6.945,4.303,10.346,10.434,8.796,12.867c-0.448,0-1.145-0.14-1.877-0.313c-1.091-0.237-2.331-0.507-3.654-0.507
		c-2.289,0-4.213,0.825-5.732,2.479c-2.811,3.04-2.563,7.705-2.304,12.636c0.221,4.192,0.443,8.527-1.329,11.391
		c-5.163,8.342-16.01,10.436-21.943,10.95l5.194-8.414c0.917,0.303,1.877,0.501,2.853,0.501c3.243,0,6.202-1.65,7.91-4.406
		c2.695-4.355,1.345-10.085-3.006-12.78c-4.24-2.637-10.188-1.215-12.804,3.011c-1.313,2.128-1.714,4.614-1.139,7.042
		c0.406,1.69,1.281,3.219,2.5,4.412l-5.2,8.424C35.79,92.88,32.742,82.091,37.905,73.741z M47.075,87.61
		c-1.128-0.701-1.919-1.798-2.226-3.09c-0.311-1.29-0.095-2.619,0.606-3.747c0.917-1.474,2.505-2.365,4.256-2.365
		c0.917,0,1.819,0.259,2.605,0.746c2.331,1.453,3.048,4.52,1.608,6.853C52.528,88.246,49.364,89.018,47.075,87.61z"/>
</g>
</svg>